# xmcd CD database file
#
# Track frame offsets:
#	182
#	20212
#	35682
#	50422
#	64900
#	74490
#	89352
#	102992
#	118525
#	129570
#	143780
#	158890
#	171135
#	183967
#	201445
#	216342
#	231735
#	246847
#	260415
#	273050
#
# Disc length: 3872 seconds
#
# Revision: 1
# Processed by: cddbd v1.4PL0 Copyright (c) Steve Scherf et al.
# Submitted via: CDex 1.50beta10
#
DISCID=370f1e14
DTITLE=John Hammond - John Hammond
DYEAR=1998
DGENRE=Blues
TTITLE0=Sweet home Chicago
TTITLE1=Sugar Mama
TTITLE2=I can't be satisfied
TTITLE3=Gambling blues
TTITLE4=My Babe
TTITLE5=I'm Man
TTITLE6=I hate to see you go
TTITLE7=Howling for my darling
TTITLE8=Barrelhouse woman blues
TTITLE9=Last night
TTITLE10=I'm leaving you
TTITLE11=Big Boss man
TTITLE12=I'm ready
TTITLE13=Caress me Baby
TTITLE14=Rambling blues
TTITLE15=Southbound blues
TTITLE16=Barbecue blues
TTITLE17=Pretty thing
TTITLE18=Who's been talkin'
TTITLE19=No money down
EXTD=YEAR: 1998
EXTT0=
EXTT1=
EXTT2=
EXTT3=
EXTT4=
EXTT5=
EXTT6=
EXTT7=
EXTT8=
EXTT9=
EXTT10=
EXTT11=
EXTT12=
EXTT13=
EXTT14=
EXTT15=
EXTT16=
EXTT17=
EXTT18=
EXTT19=
PLAYORDER=
